<mxfile host="app.diagrams.net" modified="2024-03-02T07:50:41.606Z" agent="Mozilla/5.0 (Windows NT 10.0; Win64; x64) AppleWebKit/537.36 (KHTML, like Gecko) Chrome/122.0.0.0 Safari/537.36 Edg/122.0.0.0" version="24.0.0" etag="ixOCGwGL1RssQ5Of-gjw" type="github">
  <diagram name="Page-1" id="w5yzDewN5VMTV_sw--1R">
    <mxGraphModel>
      <root>
        <mxCell id="0" />
        <mxCell id="1" parent="0" />
      </root>
    </mxGraphModel>
  </diagram>
</mxfile>
